<svg width="150" height="45.9833" viewBox="0 0 99.64 30.54" xml:space="preserve" xmlns="http://www.w3.org/2000/svg"><g fill="#fff"><path d="M55.52 166.51q-.17 0-.29-.04-.1-.04-.1-.14 0-.17.41-.25.51-.1.69-.3.19-.21.19-.69v-6.07q0-.46-.2-.64-.18-.2-.7-.3-.4-.08-.4-.27 0-.1.1-.13.1-.05.26-.05.35 0 .6.02l.51.02h1.01l.47-.01.6-.01q.16 0 .24.04.1.02.1.12 0 .1-.1.17-.1.06-.3.1-.5.12-.64.34-.13.21-.13.6v2.6l.02.16q.03.08.08.08.07 0 .16-.07l.19-.16 2.65-2.76q.11-.12.16-.21.07-.11.07-.2 0-.26-.36-.34l-.3-.1q-.08-.08-.08-.18 0-.08.1-.13.1-.04.25-.04h.8l.87-.01.86-.03h.62q.14 0 .22.05.1.04.1.1 0 .11-.13.18-.1.07-.31.1-.55.1-1.08.32-.52.2-.97.55-.45.37-.86.75l-.8.78-.84.88q-.12.1.05.3l3.25 3.5q.25.3.43.47.19.16.42.28.23.1.59.19.2.05.32.1t.12.15q0 .08-.12.12-.12.06-.32.06-.4 0-.71-.03-.33-.01-.64-.04l-.71-.01-.58.01q-.26.03-.71.03-.15 0-.26-.05-.1-.04-.1-.13 0-.16.34-.24.43-.1.43-.31 0-.08-.06-.16l-.14-.2-2.62-2.95q-.09-.09-.18-.15-.08-.07-.13-.07-.06 0-.07.1l-.01.16v1.2l.05 1.33q.01.28.08.5.07.21.24.36.18.13.51.21.2.05.31.1.11.05.11.16 0 .08-.12.12-.1.06-.27.06-.38 0-.62-.03l-.43-.05q-.19-.03-.44-.03-.31 0-.57.03l-.52.05q-.27.03-.66.03zm9.58 0q-.16 0-.25-.04-.1-.04-.1-.12 0-.18.4-.26.5-.1.7-.3.24-.2.24-.67v-6.09q0-.45-.2-.65-.18-.2-.68-.3-.2-.04-.3-.1-.09-.08-.09-.17 0-.08.1-.12.09-.06.25-.06.44 0 .8.02l.7.02q.35.02.75.02h1.13l1.1-.03.74-.01.37-.03q.08 0 .16.04.1.03.1.12l.14.83q.08.39.08.68 0 .14-.06.2-.06.03-.13.03-.06 0-.1-.04-.04-.04-.08-.12l-.18-.48q-.08-.23-.19-.34-.17-.19-.4-.28-.23-.1-.51-.1h-1.51q-.18 0-.38.14-.19.12-.19.35v2.74q0 .14.08.22.09.08.2.08h1.27q.4 0 .54-.18.15-.17.24-.53.1-.27.26-.27.07 0 .12.06.05.06.05.18l-.01.27-.03.39-.01.32v.37l.03.4.01.3q.01.12-.03.2-.02.06-.1.06-.2 0-.31-.39-.09-.35-.23-.52-.14-.18-.4-.18h-1.26q-.22 0-.32.07t-.1.28v2.58q0 .47.2.66.2.17.62.17h1.07q.37 0 .66-.05.28-.06.48-.2.23-.17.4-.42.18-.26.37-.63.05-.09.1-.13.06-.05.13-.04.08 0 .1.07.05.05.05.15 0 .15-.07.44-.07.3-.18.62l-.17.55q-.04.1-.1.15-.05.07-.13.07l-1-.01-1.09-.03-1.1-.03h-1.63l-.53.05q-.25.02-.59.02zm9.39 0q-.18 0-.28-.04-.11-.04-.11-.12 0-.11.1-.16.13-.07.33-.11.51-.1.75-.37.25-.27.25-.74v-1.94q0-.33-.14-.64-.13-.33-.23-.49l-1.63-2.6q-.1-.18-.3-.44-.17-.26-.38-.47-.22-.22-.46-.28-.2-.07-.3-.13-.1-.06-.1-.17 0-.1.09-.12.1-.04.25-.04l.85.02q.45.03.95.03.36 0 .67-.03l.62-.02q.16 0 .27.04.1.04.1.12 0 .1-.1.17-.11.06-.31.11-.26.07-.4.15-.13.07-.13.24 0 .2.16.49l1.3 2.33q.21.4.33.4.07 0 .15-.1.08-.09.22-.3.32-.51.58-.99l.57-1.07q.11-.2.17-.35.05-.16.05-.29 0-.27-.2-.37-.2-.11-.42-.12-.13-.03-.28-.1-.15-.08-.15-.19 0-.08.1-.12.13-.04.29-.04l.58.01q.24.02.55.02.4 0 .76-.03t.63-.03q.17 0 .28.05.12.02.12.13 0 .1-.19.18l-.41.13q-.38.1-.64.38-.24.27-.55.74l-.44.7-.37.56-.33.56-.4.66q-.16.24-.24.43-.06.17-.09.36l-.01.45v2.02q0 .47.24.74.25.25.77.36.2.04.3.1.13.05.13.15 0 .1-.11.14-.1.04-.28.04-.34 0-.62-.02l-.54-.05H75.7l-.58.05q-.3.02-.63.02zm10.78.13q-.97 0-1.87-.32-.89-.32-1.58-.91-.68-.6-1.09-1.43-.39-.84-.39-1.86 0-.96.4-1.79.41-.85 1.12-1.47.73-.63 1.69-.98.95-.36 2.07-.36.5 0 .89.05.39.04.75.12.37.08.78.22.18.05.26.14.1.1.1.29.05.35.07.72.05.38.06.84 0 .12-.1.17-.1.06-.22.03-.13-.04-.17-.19-.12-.44-.28-.8-.16-.34-.47-.57-.31-.24-.8-.38-.47-.13-1.06-.13-.75 0-1.39.3-.63.32-1.07.85-.45.53-.7 1.2-.25.68-.25 1.4 0 .85.23 1.63.25.78.69 1.39.46.6 1.1.97.65.35 1.46.35.97 0 1.6-.43.63-.45 1.07-1.27.09-.19.28-.19.19 0 .19.22 0 .13-.06.38-.04.23-.12.5l-.16.5q-.08.18-.15.25-.07.07-.25.13-.52.22-1.22.33-.68.1-1.41.1zm4.85-.14q-.15 0-.24-.06-.1-.04-.1-.12 0-.16.38-.24.5-.1.66-.3.16-.2.16-.66v-6.1q0-.45-.12-.64-.12-.2-.62-.3-.4-.08-.4-.26 0-.08.09-.13.1-.05.26-.05h.59l.46.03q.22.02.5.02h.5l.5-.03.61-.01q.35 0 .35.17 0 .11-.1.17-.1.05-.3.09-.5.12-.7.34-.2.21-.2.6v2.57q0 .1.06.13l.14.02h4.5q.11 0 .11-.17v-2.55q0-.38-.18-.6-.18-.22-.7-.34-.2-.04-.3-.1-.1-.05-.1-.16 0-.17.34-.17l.62.01.54.03h.55q.26 0 .45-.02l.41-.02.58-.01q.16 0 .26.05t.1.13q0 .18-.4.26-.5.1-.62.32-.12.2-.12.6v6.1q0 .48.14.68.14.2.63.3.38.08.38.24 0 .08-.11.12-.1.06-.24.06-.33 0-.58-.03l-.47-.03h-1.03l-.5.03q-.26.03-.6.03-.16 0-.26-.06-.08-.04-.08-.12 0-.1.08-.15.1-.05.3-.1.46-.09.69-.3.22-.22.22-.63v-2.74q-.02-.07-.1-.07h-4.6q-.1 0-.1.17v2.54q0 .4.27.67t.74.37q.2.04.3.1.09.03.09.14 0 .08-.1.12-.09.06-.25.06-.34 0-.62-.03l-.55-.03h-1.07l-.5.03q-.26.03-.6.03zm10.45.01q-.16 0-.27-.05-.11-.05-.11-.14 0-.1.1-.17.12-.07.3-.14.37-.1.66-.32.3-.22.49-.66l.67-1.56.6-1.48.57-1.5q.3-.78.61-1.66.12-.3.17-.5.06-.22.07-.38l.33-.09q.14-.05.32-.14.16-.08.24-.23l.15-.23.05-.01q.05-.02.07.04.04.07.05.15l.06.17.63 2 .66 1.99.6 1.8.5 1.44q.14.45.34.69.2.23.43.35.23.1.5.16.2.04.3.12.1.08.1.19 0 .08-.1.1-.1.05-.25.05-.21 0-.56-.03l-.73-.02-.68-.01h-1.17l-.46.02q-.17 0-.27-.04-.1-.05-.1-.13 0-.11.12-.18.12-.07.29-.1.45-.07.66-.24.21-.16.17-.43-.01-.23-.1-.56-.07-.35-.18-.73-.1-.4-.2-.71-.03-.11-.1-.14-.06-.02-.23-.02h-2.49q-.06 0-.12.05-.05.04-.1.17l-.14.42-.16.53-.15.5-.07.35q-.04.33.16.53.22.2.64.3.4.1.4.27 0 .1-.1.13t-.26.03l-.6-.01q-.33-.02-.71-.02-.43 0-.83.05-.4.04-.77.04zm3.19-3.9h1.96q.2 0 .2-.06 0-.04-.02-.07l-.01-.08-1-3.19q-.07-.21-.1-.21t-.1.2l-1.17 3.2-.03.11q0 .07.07.1h.2zm6.46 3.89q-.15 0-.26-.05-.1-.02-.1-.12 0-.17.4-.25.51-.1.75-.3.24-.2.24-.66v-6.09q0-.45-.18-.64-.2-.2-.7-.31-.4-.08-.4-.27 0-.1.1-.14.1-.04.24-.04l.62.01.54.03.55.01h.53l.5-.02q.28-.02.61-.02.17 0 .26.05.1.02.1.12 0 .1-.11.17-.1.06-.29.1-.52.12-.74.3-.2.2-.2.65v6.09q0 .44.26.65.25.2.75.3.2.05.3.1.1.05.1.16 0 .08-.1.12-.08.05-.24.05-.34 0-.62-.03l-.56-.03h-1.15l-.57.03q-.3.03-.63.03zm13.14.18q-.13 0-.51-.21-.37-.2-.72-.67l-.45-.52-.72-.83-.87-1.01q-.46-.54-.93-1.06l-.88-1.01-.72-.84q-.31-.36-.48-.52-.06-.1-.13-.15-.05-.06-.1-.06-.06 0-.09.11l-.02.18q-.02.64-.02 1.5l-.01 1.74V165q0 .4.22.69.21.28.72.39.2.04.3.1.12.05.12.16 0 .08-.1.12-.12.04-.28.04-.36 0-.56-.03l-.35-.02h-.43l-.45.01-.35.03h-.43q-.15 0-.27-.03-.1-.03-.1-.12 0-.1.1-.15.11-.07.31-.12.37-.11.54-.4.18-.3.2-.7.06-.5.11-1.34.07-.84.1-1.87.05-1.04.05-2.14 0-.72-.36-1.03-.37-.3-.93-.5l-.24-.1q-.17-.08-.17-.2 0-.13.13-.17.12-.04.2-.04l.6.03h.51l.52.03h.63q.12 0 .19.07.07.06.12.14l.46.55.74.89.91 1.09q.49.56.97 1.14l.92 1.1.74.88.46.53.13.15q.1.09.16.09.12 0 .14-.26v-2.06l.01-1.5-.01-1.57q-.01-.3-.28-.5-.27-.21-.58-.28-.2-.02-.35-.1-.17-.06-.17-.17 0-.08.17-.12.16-.04.3-.04h1.46l.4-.03h.62q.16 0 .26.03.1.05.1.14 0 .19-.41.27-.49.1-.66.25-.18.15-.19.5l-.01.71-.03 1.15-.01 1.39-.01 1.42v1.27q0 .32.02.63l.05.53.02.32q0 .26-.1.34-.09.1-.22.1zm10.03-.04q-.97 0-1.87-.32-.89-.32-1.58-.92-.68-.59-1.09-1.42-.39-.84-.39-1.86 0-.96.4-1.8.41-.84 1.12-1.46.73-.63 1.69-.98.95-.37 2.07-.37.5 0 .89.06.4.04.75.12.37.08.79.21.17.06.25.15.1.1.1.28.05.35.08.73l.05.84q0 .12-.1.17-.1.06-.22.03-.12-.05-.16-.2-.13-.44-.29-.79-.16-.35-.47-.57-.3-.25-.8-.38-.46-.14-1.06-.14-.75 0-1.38.31-.64.31-1.08.85-.45.53-.7 1.2-.24.67-.24 1.4 0 .85.23 1.63.24.78.68 1.39.46.6 1.1.97.65.35 1.46.35.97 0 1.6-.43.64-.45 1.07-1.27.1-.19.28-.19.19 0 .19.22 0 .13-.06.37-.03.23-.12.52l-.16.5q-.08.17-.15.24-.06.06-.25.13-.51.22-1.21.32-.7.11-1.42.11zm4.4-.13q-.17 0-.28-.06-.1-.04-.1-.13 0-.1.1-.18.11-.06.3-.13.36-.1.66-.32.3-.22.48-.66.37-.82.68-1.57l.59-1.48.58-1.5q.3-.77.6-1.65.13-.3.18-.5.05-.22.07-.39l.32-.08q.15-.05.32-.15.17-.08.25-.22l.14-.23.06-.02q.04 0 .07.05.04.06.05.14l.05.18.64 2 .66 1.99.6 1.8.49 1.44q.14.44.35.69.2.23.43.35.23.1.5.16.2.04.3.12.1.08.1.19 0 .08-.1.1-.1.05-.25.05-.22 0-.57-.03l-.72-.02-.69-.02h-.57q-.3 0-.59.02l-.47.01q-.16 0-.27-.04-.1-.06-.1-.14 0-.1.13-.17.12-.07.28-.1.46-.08.66-.24.22-.16.18-.43-.02-.23-.1-.57l-.19-.72q-.1-.4-.2-.72-.02-.1-.1-.13-.06-.03-.22-.03h-2.5q-.06 0-.11.06-.06.04-.11.17-.04.16-.14.42l-.16.53-.15.5-.06.34q-.05.34.16.54.21.2.63.3.4.1.4.27 0 .1-.1.13t-.26.03l-.6-.01q-.33-.02-.7-.02-.44 0-.84.05-.4.04-.77.04zm3.18-3.9h1.97q.19 0 .19-.06l-.01-.07-.02-.08-1-3.19q-.06-.22-.1-.22-.03 0-.1.2l-1.17 3.21-.02.1q0 .08.07.1.08.02.2.02zm7.5 3.88q-.16 0-.26-.04-.11-.02-.11-.12 0-.1.1-.15.11-.06.3-.1.51-.1.77-.31.26-.22.26-.7v-5.32q0-.6-.03-.9-.03-.3-.08-.41-.06-.12-.15-.15-.16-.04-.36-.04l-.47-.01h-.53q-.35 0-.7.16-.34.15-.51.43l-.16.23q-.1.13-.22.24-.12.1-.24.1-.07 0-.1-.06-.03-.05-.03-.13 0-.15.08-.3.21-.43.3-.75.1-.33.15-.77.03-.22.11-.27.08-.05.16-.05.07 0 .18.17l.19.27q.1.12.4.19.3.07.55.07l4.86-.02q.42 0 .7-.05.27-.05.45-.14.19-.09.3-.2.1-.12.28-.12.05 0 .08.1.02.08.02.18v.17l-.03.17q-.06.26-.11.4l-.07.29-.01.32v.19q0 .16-.06.31-.05.15-.16.15-.1 0-.17-.14t-.14-.41q-.08-.35-.36-.54-.27-.2-.9-.2h-1.13q-.27 0-.42.1-.15.08-.2.4-.05.32-.05 1.02v5.33q0 .46.26.67.27.22.78.33.19.04.28.09.11.05.11.16 0 .08-.1.12-.09.05-.25.05-.33 0-.62-.03l-.55-.03h-1.17l-.58.03q-.3.03-.65.03z" style="white-space:pre;stroke-width:1.12214;paint-order:stroke markers fill" aria-label="KEYCHAIN CAT" transform="translate(-55.12 -136.14)"/><path d="M60.47 24.43c1-.54 4.46-1.76 8.7-3.07 1.72-.53 3.1-1 3.06-1.03a21.5 21.5 0 0 0-2.2.11c-2.9.24-10.31.23-9.52-.01.34-.1 1.61-.26 2.83-.35 5.76-.43 11.85-1.3 13.68-1.99.5-.18 2.43-1.14 1.3-1.62-1.62-.7-3.54-.52-3.92-.6.31-.3 1.6-.39 3.84-.27 4.52.25 6.55-.76 4.74-2.34-4-3.5-12.07-5.04-21.18-4.06-1.93.2-4.4.38-5.48.38-1.09 0-1.98.03-1.98.08 0 .71.65 1.54 1.6 2.04 1.82.96 1.9 2.58.21 4.61-2.58 3.13-8.01 1.9-5.83-1.32.8-1.18 1.63-1.75 1.94-2.12.53-.63-3.3 1.84-3.3 3.02 0 .3-.91.43-1.83.04-2.56-1.1-3.36-.44-1.51 1.26 1.35 1.25 1.39 1.4.6 2.18-1.37 1.37-4.56-.17-5.55-2.67-.16-.43-.74-.86-1-1.04-.22-.16-.6-.31-.6-.5 0-.2.4-.58.63-1.15.59-1.44.44-2.86-.34-3.64-.37-.38-.76-.5-.97-.45.15.02.71 0 .96.95.25.96.2 2.95-1.27 4.38l-1.17 1.13 1.5.5c1.98.66 2.71 1.4 2.17 2.23-.95 1.46-3.92 1.19-6.55-.6-1.43-.97-1.43-.97-2.33-.56-2.16.98-4.53.03-5.25-2.1-.04-.14-.21-.14-.4-.02a2 2 0 0 1-.7.25c-.2.02-1.3.32-2.46.66-4.52 1.34-9.3.55-6.56-1.08a47.2 47.2 0 0 0 3.12-2.44 63.66 63.66 0 0 1 3.38-2.66c1.85-1.23-1.54-2.7-6.58-1.53-1.91.44-3.33 1.22-5.19 1.7-.53-.21-.32-.73.72-1.51 3.06-2.34 8.1-3.15 13.33-2.15 3.74.71 5.8-.64 3.8-2.5-2.47-2.33-3.79-2.57-3.8-1.05 0 1.52.13 1.96-.26 1.73-.4-.23-.86-.95-1.15-2-1.12-4.16 3.57-4.38 7.28-.35 1.28 1.39 1.63 1.65 1.97 1.46 1.46-.82 7.26-2.55 7.82-2.33.78.3.79 1.04.02 2.17-.85 1.25-2.54 2.6 1.25 1.75 4.28-.94 7.58.37 9.99.99 3.23.82 4.93 1.08 9.98.78 7-.4 9.04-.78 16.18 1.17 6.51 1.78 8.9 5.6 6.82 7.87-.46.49-1.01.21-1.66 1.93-1.62 4.29-3.3 4.37-3.3 4.37s.74-.96.87-3.24c.1-1.72-.26-1.63-1.84-1.09-.7.24-1.86.58-2.57.75-.72.17-1.43.49-1.59.71-1.05 1.48-10.84 4.72-14.21 4.7-1.06 0-1.06 0-.24-.46zm6.71-5.65c-3.19-.45-6.6-2.3-8.1-4.37-.94-1.32-.95-1.32 1.56.12 3.66 2.1 5.97 2.74 10.74 2.98 3.16.16 3.65.4 1.96.97-1.18.39-4.39.55-6.16.3z"/></g></svg>