<svg viewBox="0 0 27 39" preserveAspectRatio="xMinYMax slice" fill="none" xmlns="http://www.w3.org/2000/svg">
<path d="M11.9303 42L2.38931e-05 1.99806e-06L7.19242 4.9183e-06C7.19242 4.9183e-06 17.239 36.1005 19.2938 42C14.7273 42 12.5955 42 11.9303 42Z" fill="#F2567C"/>
<path d="M11.9303 42L2.38931e-05 1.99806e-06L7.19242 4.9183e-06C7.19242 4.9183e-06 17.239 36.1005 19.2938 42C14.7273 42 12.5955 42 11.9303 42Z" fill="#F2567C"/>
<path d="M11.9303 42L2.38931e-05 1.99806e-06L7.19242 4.9183e-06C7.19242 4.9183e-06 17.239 36.1005 19.2938 42C14.7273 42 12.5955 42 11.9303 42Z" fill="#F2567C"/>
<path d="M11.9303 42L2.38931e-05 1.99806e-06L7.19242 4.9183e-06C7.19242 4.9183e-06 17.239 36.1005 19.2938 42C14.7273 42 12.5955 42 11.9303 42Z" fill="#F2567C"/>
<path d="M22.776 42L10.8457 3.38133e-06L14.8986 3.76558e-06C14.8986 3.76558e-06 24.9452 36.1005 27 42C22.4334 42 23.4412 42 22.776 42Z" fill="#F2567C"/>
<path d="M22.776 42L10.8457 3.38133e-06L14.8986 3.76558e-06C14.8986 3.76558e-06 24.9452 36.1005 27 42C22.4334 42 23.4412 42 22.776 42Z" fill="#F2567C"/>
</svg>
