<svg viewBox="0 0 176.181 176.06" xml:space="preserve" xmlns="http://www.w3.org/2000/svg"><g style="fill:#f2567c;fill-opacity:1"><path d="M167.18 16.597h-57.04a9 9 0 0 0-9 9 9 9 0 0 0 9 9h35.313l-71.36 69.553c-3.56 3.47-3.516 9.213 0 12.728 4.284 3.36 8.662 3.892 12.727 0l71.36-69.553v35.313a9 9 0 0 0 9 9 9 9 0 0 0 9-9v-57.04a9 9 0 0 0-9-9.001z" transform="translate(0 -16.597)"/><path d="M148.538 110.48c-4.971 0-9.042 4.029-9 9l.462 55.177H18v-122h51.487a9 9 0 0 0 9-9 9 9 0 0 0-9-9H9a9 9 0 0 0-9 9v140a9 9 0 0 0 9 9h140c4.971 0 9.036-4.03 9-9l-.462-64.177c-.036-4.971-4.03-9-9-9z" transform="translate(0 -16.597)"/></g></svg>
